  0
SECTION
  2
HEADER
  9
$ACADVER
  1
AC1009
  9
$INSUNITS
 70
     1
  0
ENDSEC
  0
SECTION
  2
TABLES
  0
TABLE
  2
LAYER
 70
     8
  0
LAYER
  2
0
 62
     7
 70
0
  6
CONTINUOUS
  0
LAYER
  2
1
 62
     1
 70
0
  6
CONTINUOUS
  0
LAYER
  2
2
 62
     2
 70
0
  6
CONTINUOUS
  0
LAYER
  2
3
 62
     3
 70
0
  6
CONTINUOUS
  0
LAYER
  2
4
 62
     4
 70
0
  6
CONTINUOUS
  0
LAYER
  2
5
 62
     5
 70
0
  6
CONTINUOUS
  0
LAYER
  2
6
 62
     6
 70
0
  6
CONTINUOUS
  0
LAYER
  2
7
 62
     7
 70
0
  6
CONTINUOUS
  0
ENDTAB
  0
TABLE
  2
STYLE
 70
     1
  0
STYLE
 70
     0
  2
STANDARD
  3
TXT
 40
0.00
 41
1.00
 42
1.00
 50
0.00
 71
     0
  0
ENDTAB
  0
ENDSEC
  0
SECTION
  2
BLOCKS
  0
BLOCK
  8
0
  2
EPAD
 70
0
 10
0.0
 20
0.0
  0
POLYLINE
  8
0
 66
1
 70
1
 40
0.5
 41
0.5
  0
VERTEX
  8
0
 10
-0.25
 20
0.0
 42
1.0
  0
VERTEX
  8
0
 10
0.25
 20
0.0
 42
1.0
  0
SEQEND
  8
0
  0
ENDBLK
  8
0
  0
BLOCK
  8
0
  2
RPAD
 70
0
 10
0.0
 20
0.0
  0
TRACE
  8
0
 10
-0.5
 20
-0.5
 11
-0.5
 21
0.5
 12
0.5
 22
-0.5
 13
0.5
 23
0.5
  0
ENDBLK
  8
0
  0
ENDSEC
0
SECTION
2
ENTITIES
0
POLYLINE
8
0
66
1
70
1
40
0
41
0
0
VERTEX
8
0
10
-4.004339
20
0.251850
0
VERTEX
8
0
10
-4.044480
20
0.251850
0
VERTEX
8
0
10
-4.059409
20
0.236921
0
VERTEX
8
0
10
-4.059409
20
0.156780
0
VERTEX
8
0
10
-4.044480
20
0.141850
0
VERTEX
8
0
10
-4.004339
20
0.141850
0
VERTEX
8
0
10
-3.989409
20
0.156780
0
VERTEX
8
0
10
-3.989409
20
0.236921
0
VERTEX
8
0
10
-4.004339
20
0.251850
0
SEQEND
8
0
0
POLYLINE
8
0
66
1
70
1
40
0
41
0
0
VERTEX
8
0
10
-4.104339
20
0.251850
0
VERTEX
8
0
10
-4.144480
20
0.251850
0
VERTEX
8
0
10
-4.159409
20
0.236921
0
VERTEX
8
0
10
-4.159409
20
0.156780
0
VERTEX
8
0
10
-4.144480
20
0.141850
0
VERTEX
8
0
10
-4.104339
20
0.141850
0
VERTEX
8
0
10
-4.089409
20
0.156780
0
VERTEX
8
0
10
-4.089409
20
0.236921
0
VERTEX
8
0
10
-4.104339
20
0.251850
0
SEQEND
8
0
0
POLYLINE
8
0
66
1
70
1
40
0
41
0
0
VERTEX
8
0
10
-4.204339
20
0.251850
0
VERTEX
8
0
10
-4.244480
20
0.251850
0
VERTEX
8
0
10
-4.259409
20
0.236921
0
VERTEX
8
0
10
-4.259409
20
0.156780
0
VERTEX
8
0
10
-4.244480
20
0.141850
0
VERTEX
8
0
10
-4.204339
20
0.141850
0
VERTEX
8
0
10
-4.189409
20
0.156780
0
VERTEX
8
0
10
-4.189409
20
0.236921
0
VERTEX
8
0
10
-4.204339
20
0.251850
0
SEQEND
8
0
0
POLYLINE
8
0
66
1
70
1
40
0
41
0
0
VERTEX
8
0
10
-4.304339
20
0.251850
0
VERTEX
8
0
10
-4.344480
20
0.251850
0
VERTEX
8
0
10
-4.359409
20
0.236921
0
VERTEX
8
0
10
-4.359409
20
0.156780
0
VERTEX
8
0
10
-4.344480
20
0.141850
0
VERTEX
8
0
10
-4.304339
20
0.141850
0
VERTEX
8
0
10
-4.289409
20
0.156780
0
VERTEX
8
0
10
-4.289409
20
0.236921
0
VERTEX
8
0
10
-4.304339
20
0.251850
0
SEQEND
8
0
0
POLYLINE
8
0
66
1
70
1
40
0
41
0
0
VERTEX
8
0
10
-4.404339
20
0.251850
0
VERTEX
8
0
10
-4.444480
20
0.251850
0
VERTEX
8
0
10
-4.459409
20
0.236921
0
VERTEX
8
0
10
-4.459409
20
0.156780
0
VERTEX
8
0
10
-4.444480
20
0.141850
0
VERTEX
8
0
10
-4.404339
20
0.141850
0
VERTEX
8
0
10
-4.389409
20
0.156780
0
VERTEX
8
0
10
-4.389409
20
0.236921
0
VERTEX
8
0
10
-4.404339
20
0.251850
0
SEQEND
8
0
0
POLYLINE
8
0
66
1
70
1
40
0
41
0
0
VERTEX
8
0
10
-4.504339
20
0.251850
0
VERTEX
8
0
10
-4.544480
20
0.251850
0
VERTEX
8
0
10
-4.559409
20
0.236921
0
VERTEX
8
0
10
-4.559409
20
0.156780
0
VERTEX
8
0
10
-4.544480
20
0.141850
0
VERTEX
8
0
10
-4.504339
20
0.141850
0
VERTEX
8
0
10
-4.489409
20
0.156780
0
VERTEX
8
0
10
-4.489409
20
0.236921
0
VERTEX
8
0
10
-4.504339
20
0.251850
0
SEQEND
8
0
0
POLYLINE
8
0
66
1
70
1
40
0
41
0
0
VERTEX
8
0
10
-4.604339
20
0.251850
0
VERTEX
8
0
10
-4.644480
20
0.251850
0
VERTEX
8
0
10
-4.659409
20
0.236921
0
VERTEX
8
0
10
-4.659409
20
0.156780
0
VERTEX
8
0
10
-4.644480
20
0.141850
0
VERTEX
8
0
10
-4.604339
20
0.141850
0
VERTEX
8
0
10
-4.589409
20
0.156780
0
VERTEX
8
0
10
-4.589409
20
0.236921
0
VERTEX
8
0
10
-4.604339
20
0.251850
0
SEQEND
8
0
0
POLYLINE
8
0
66
1
70
1
40
0
41
0
0
VERTEX
8
0
10
-4.704339
20
0.251850
0
VERTEX
8
0
10
-4.744480
20
0.251850
0
VERTEX
8
0
10
-4.759409
20
0.236921
0
VERTEX
8
0
10
-4.759409
20
0.156780
0
VERTEX
8
0
10
-4.744480
20
0.141850
0
VERTEX
8
0
10
-4.704339
20
0.141850
0
VERTEX
8
0
10
-4.689409
20
0.156780
0
VERTEX
8
0
10
-4.689409
20
0.236921
0
VERTEX
8
0
10
-4.704339
20
0.251850
0
SEQEND
8
0
0
POLYLINE
8
0
66
1
70
1
40
0
41
0
0
VERTEX
8
0
10
-3.844480
20
0.251850
0
VERTEX
8
0
10
-3.804339
20
0.251850
0
VERTEX
8
0
10
-3.789409
20
0.236921
0
VERTEX
8
0
10
-3.789409
20
0.156780
0
VERTEX
8
0
10
-3.804339
20
0.141850
0
VERTEX
8
0
10
-3.844480
20
0.141850
0
VERTEX
8
0
10
-3.859409
20
0.156780
0
VERTEX
8
0
10
-3.859409
20
0.236921
0
VERTEX
8
0
10
-3.844480
20
0.251850
0
SEQEND
8
0
0
POLYLINE
8
0
66
1
70
1
40
0
41
0
0
VERTEX
8
0
10
-3.744480
20
0.251850
0
VERTEX
8
0
10
-3.704339
20
0.251850
0
VERTEX
8
0
10
-3.689409
20
0.236921
0
VERTEX
8
0
10
-3.689409
20
0.156780
0
VERTEX
8
0
10
-3.704339
20
0.141850
0
VERTEX
8
0
10
-3.744480
20
0.141850
0
VERTEX
8
0
10
-3.759409
20
0.156780
0
VERTEX
8
0
10
-3.759409
20
0.236921
0
VERTEX
8
0
10
-3.744480
20
0.251850
0
SEQEND
8
0
0
POLYLINE
8
0
66
1
70
1
40
0
41
0
0
VERTEX
8
0
10
-3.644480
20
0.251850
0
VERTEX
8
0
10
-3.604339
20
0.251850
0
VERTEX
8
0
10
-3.589409
20
0.236921
0
VERTEX
8
0
10
-3.589409
20
0.156780
0
VERTEX
8
0
10
-3.604339
20
0.141850
0
VERTEX
8
0
10
-3.644480
20
0.141850
0
VERTEX
8
0
10
-3.659409
20
0.156780
0
VERTEX
8
0
10
-3.659409
20
0.236921
0
VERTEX
8
0
10
-3.644480
20
0.251850
0
SEQEND
8
0
0
POLYLINE
8
0
66
1
70
1
40
0
41
0
0
VERTEX
8
0
10
-3.544480
20
0.251850
0
VERTEX
8
0
10
-3.504339
20
0.251850
0
VERTEX
8
0
10
-3.489409
20
0.236921
0
VERTEX
8
0
10
-3.489409
20
0.156780
0
VERTEX
8
0
10
-3.504339
20
0.141850
0
VERTEX
8
0
10
-3.544480
20
0.141850
0
VERTEX
8
0
10
-3.559409
20
0.156780
0
VERTEX
8
0
10
-3.559409
20
0.236921
0
VERTEX
8
0
10
-3.544480
20
0.251850
0
SEQEND
8
0
0
POLYLINE
8
0
66
1
70
1
40
0
41
0
0
VERTEX
8
0
10
-3.444480
20
0.251850
0
VERTEX
8
0
10
-3.404339
20
0.251850
0
VERTEX
8
0
10
-3.389409
20
0.236921
0
VERTEX
8
0
10
-3.389409
20
0.156780
0
VERTEX
8
0
10
-3.404339
20
0.141850
0
VERTEX
8
0
10
-3.444480
20
0.141850
0
VERTEX
8
0
10
-3.459409
20
0.156780
0
VERTEX
8
0
10
-3.459409
20
0.236921
0
VERTEX
8
0
10
-3.444480
20
0.251850
0
SEQEND
8
0
0
POLYLINE
8
0
66
1
70
1
40
0
41
0
0
VERTEX
8
0
10
-3.344480
20
0.251850
0
VERTEX
8
0
10
-3.304339
20
0.251850
0
VERTEX
8
0
10
-3.289409
20
0.236921
0
VERTEX
8
0
10
-3.289409
20
0.156780
0
VERTEX
8
0
10
-3.304339
20
0.141850
0
VERTEX
8
0
10
-3.344480
20
0.141850
0
VERTEX
8
0
10
-3.359409
20
0.156780
0
VERTEX
8
0
10
-3.359409
20
0.236921
0
VERTEX
8
0
10
-3.344480
20
0.251850
0
SEQEND
8
0
0
POLYLINE
8
0
66
1
70
1
40
0
41
0
0
VERTEX
8
0
10
-3.304339
20
-1.648150
0
VERTEX
8
0
10
-3.344480
20
-1.648150
0
VERTEX
8
0
10
-3.359409
20
-1.663079
0
VERTEX
8
0
10
-3.359409
20
-1.743220
0
VERTEX
8
0
10
-3.344480
20
-1.758150
0
VERTEX
8
0
10
-3.304339
20
-1.758150
0
VERTEX
8
0
10
-3.289409
20
-1.743220
0
VERTEX
8
0
10
-3.289409
20
-1.663079
0
VERTEX
8
0
10
-3.304339
20
-1.648150
0
SEQEND
8
0
0
POLYLINE
8
0
66
1
70
1
40
0
41
0
0
VERTEX
8
0
10
-3.404339
20
-1.648150
0
VERTEX
8
0
10
-3.444480
20
-1.648150
0
VERTEX
8
0
10
-3.459409
20
-1.663079
0
VERTEX
8
0
10
-3.459409
20
-1.743220
0
VERTEX
8
0
10
-3.444480
20
-1.758150
0
VERTEX
8
0
10
-3.404339
20
-1.758150
0
VERTEX
8
0
10
-3.389409
20
-1.743220
0
VERTEX
8
0
10
-3.389409
20
-1.663079
0
VERTEX
8
0
10
-3.404339
20
-1.648150
0
SEQEND
8
0
0
POLYLINE
8
0
66
1
70
1
40
0
41
0
0
VERTEX
8
0
10
-3.504339
20
-1.648150
0
VERTEX
8
0
10
-3.544480
20
-1.648150
0
VERTEX
8
0
10
-3.559409
20
-1.663079
0
VERTEX
8
0
10
-3.559409
20
-1.743220
0
VERTEX
8
0
10
-3.544480
20
-1.758150
0
VERTEX
8
0
10
-3.504339
20
-1.758150
0
VERTEX
8
0
10
-3.489409
20
-1.743220
0
VERTEX
8
0
10
-3.489409
20
-1.663079
0
VERTEX
8
0
10
-3.504339
20
-1.648150
0
SEQEND
8
0
0
POLYLINE
8
0
66
1
70
1
40
0
41
0
0
VERTEX
8
0
10
-3.604339
20
-1.648150
0
VERTEX
8
0
10
-3.644480
20
-1.648150
0
VERTEX
8
0
10
-3.659409
20
-1.663079
0
VERTEX
8
0
10
-3.659409
20
-1.743220
0
VERTEX
8
0
10
-3.644480
20
-1.758150
0
VERTEX
8
0
10
-3.604339
20
-1.758150
0
VERTEX
8
0
10
-3.589409
20
-1.743220
0
VERTEX
8
0
10
-3.589409
20
-1.663079
0
VERTEX
8
0
10
-3.604339
20
-1.648150
0
SEQEND
8
0
0
POLYLINE
8
0
66
1
70
1
40
0
41
0
0
VERTEX
8
0
10
-3.704339
20
-1.648150
0
VERTEX
8
0
10
-3.744480
20
-1.648150
0
VERTEX
8
0
10
-3.759409
20
-1.663079
0
VERTEX
8
0
10
-3.759409
20
-1.743220
0
VERTEX
8
0
10
-3.744480
20
-1.758150
0
VERTEX
8
0
10
-3.704339
20
-1.758150
0
VERTEX
8
0
10
-3.689409
20
-1.743220
0
VERTEX
8
0
10
-3.689409
20
-1.663079
0
VERTEX
8
0
10
-3.704339
20
-1.648150
0
SEQEND
8
0
0
POLYLINE
8
0
66
1
70
1
40
0
41
0
0
VERTEX
8
0
10
-3.804339
20
-1.648150
0
VERTEX
8
0
10
-3.844480
20
-1.648150
0
VERTEX
8
0
10
-3.859409
20
-1.663079
0
VERTEX
8
0
10
-3.859409
20
-1.743220
0
VERTEX
8
0
10
-3.844480
20
-1.758150
0
VERTEX
8
0
10
-3.804339
20
-1.758150
0
VERTEX
8
0
10
-3.789409
20
-1.743220
0
VERTEX
8
0
10
-3.789409
20
-1.663079
0
VERTEX
8
0
10
-3.804339
20
-1.648150
0
SEQEND
8
0
0
POLYLINE
8
0
66
1
70
1
40
0
41
0
0
VERTEX
8
0
10
-3.904339
20
-1.648150
0
VERTEX
8
0
10
-3.944480
20
-1.648150
0
VERTEX
8
0
10
-3.959409
20
-1.663079
0
VERTEX
8
0
10
-3.959409
20
-1.743220
0
VERTEX
8
0
10
-3.944480
20
-1.758150
0
VERTEX
8
0
10
-3.904339
20
-1.758150
0
VERTEX
8
0
10
-3.889409
20
-1.743220
0
VERTEX
8
0
10
-3.889409
20
-1.663079
0
VERTEX
8
0
10
-3.904339
20
-1.648150
0
SEQEND
8
0
0
POLYLINE
8
0
66
1
70
1
40
0
41
0
0
VERTEX
8
0
10
-4.004339
20
-1.648150
0
VERTEX
8
0
10
-4.044480
20
-1.648150
0
VERTEX
8
0
10
-4.059409
20
-1.663079
0
VERTEX
8
0
10
-4.059409
20
-1.743220
0
VERTEX
8
0
10
-4.044480
20
-1.758150
0
VERTEX
8
0
10
-4.004339
20
-1.758150
0
VERTEX
8
0
10
-3.989409
20
-1.743220
0
VERTEX
8
0
10
-3.989409
20
-1.663079
0
VERTEX
8
0
10
-4.004339
20
-1.648150
0
SEQEND
8
0
0
POLYLINE
8
0
66
1
70
1
40
0
41
0
0
VERTEX
8
0
10
-4.154339
20
-1.648150
0
VERTEX
8
0
10
-4.194480
20
-1.648150
0
VERTEX
8
0
10
-4.209409
20
-1.663079
0
VERTEX
8
0
10
-4.209409
20
-1.743220
0
VERTEX
8
0
10
-4.194480
20
-1.758150
0
VERTEX
8
0
10
-4.154339
20
-1.758150
0
VERTEX
8
0
10
-4.139409
20
-1.743220
0
VERTEX
8
0
10
-4.139409
20
-1.663079
0
VERTEX
8
0
10
-4.154339
20
-1.648150
0
SEQEND
8
0
0
POLYLINE
8
0
66
1
70
1
40
0
41
0
0
VERTEX
8
0
10
-4.254339
20
-1.648150
0
VERTEX
8
0
10
-4.294480
20
-1.648150
0
VERTEX
8
0
10
-4.309409
20
-1.663079
0
VERTEX
8
0
10
-4.309409
20
-1.743220
0
VERTEX
8
0
10
-4.294480
20
-1.758150
0
VERTEX
8
0
10
-4.254339
20
-1.758150
0
VERTEX
8
0
10
-4.239409
20
-1.743220
0
VERTEX
8
0
10
-4.239409
20
-1.663079
0
VERTEX
8
0
10
-4.254339
20
-1.648150
0
SEQEND
8
0
0
POLYLINE
8
0
66
1
70
1
40
0
41
0
0
VERTEX
8
0
10
-4.354339
20
-1.648150
0
VERTEX
8
0
10
-4.394480
20
-1.648150
0
VERTEX
8
0
10
-4.409409
20
-1.663079
0
VERTEX
8
0
10
-4.409409
20
-1.743220
0
VERTEX
8
0
10
-4.394480
20
-1.758150
0
VERTEX
8
0
10
-4.354339
20
-1.758150
0
VERTEX
8
0
10
-4.339409
20
-1.743220
0
VERTEX
8
0
10
-4.339409
20
-1.663079
0
VERTEX
8
0
10
-4.354339
20
-1.648150
0
SEQEND
8
0
0
POLYLINE
8
0
66
1
70
1
40
0
41
0
0
VERTEX
8
0
10
-4.454339
20
-1.648150
0
VERTEX
8
0
10
-4.494480
20
-1.648150
0
VERTEX
8
0
10
-4.509409
20
-1.663079
0
VERTEX
8
0
10
-4.509409
20
-1.743220
0
VERTEX
8
0
10
-4.494480
20
-1.758150
0
VERTEX
8
0
10
-4.454339
20
-1.758150
0
VERTEX
8
0
10
-4.439409
20
-1.743220
0
VERTEX
8
0
10
-4.439409
20
-1.663079
0
VERTEX
8
0
10
-4.454339
20
-1.648150
0
SEQEND
8
0
0
POLYLINE
8
0
66
1
70
1
40
0
41
0
0
VERTEX
8
0
10
-4.554339
20
-1.648150
0
VERTEX
8
0
10
-4.594480
20
-1.648150
0
VERTEX
8
0
10
-4.609409
20
-1.663079
0
VERTEX
8
0
10
-4.609409
20
-1.743220
0
VERTEX
8
0
10
-4.594480
20
-1.758150
0
VERTEX
8
0
10
-4.554339
20
-1.758150
0
VERTEX
8
0
10
-4.539409
20
-1.743220
0
VERTEX
8
0
10
-4.539409
20
-1.663079
0
VERTEX
8
0
10
-4.554339
20
-1.648150
0
SEQEND
8
0
0
POLYLINE
8
0
66
1
70
1
40
0
41
0
0
VERTEX
8
0
10
-4.654339
20
-1.648150
0
VERTEX
8
0
10
-4.694480
20
-1.648150
0
VERTEX
8
0
10
-4.709409
20
-1.663079
0
VERTEX
8
0
10
-4.709409
20
-1.743220
0
VERTEX
8
0
10
-4.694480
20
-1.758150
0
VERTEX
8
0
10
-4.654339
20
-1.758150
0
VERTEX
8
0
10
-4.639409
20
-1.743220
0
VERTEX
8
0
10
-4.639409
20
-1.663079
0
VERTEX
8
0
10
-4.654339
20
-1.648150
0
SEQEND
8
0
0
POLYLINE
8
0
66
1
70
1
40
0
41
0
0
VERTEX
8
0
10
-4.754339
20
-1.648150
0
VERTEX
8
0
10
-4.794480
20
-1.648150
0
VERTEX
8
0
10
-4.809409
20
-1.663079
0
VERTEX
8
0
10
-4.809409
20
-1.743220
0
VERTEX
8
0
10
-4.794480
20
-1.758150
0
VERTEX
8
0
10
-4.754339
20
-1.758150
0
VERTEX
8
0
10
-4.739409
20
-1.743220
0
VERTEX
8
0
10
-4.739409
20
-1.663079
0
VERTEX
8
0
10
-4.754339
20
-1.648150
0
SEQEND
8
0
0
POLYLINE
8
0
66
1
70
1
40
0
41
0
0
VERTEX
8
0
10
-4.854339
20
-1.648150
0
VERTEX
8
0
10
-4.894480
20
-1.648150
0
VERTEX
8
0
10
-4.909409
20
-1.663079
0
VERTEX
8
0
10
-4.909409
20
-1.743220
0
VERTEX
8
0
10
-4.894480
20
-1.758150
0
VERTEX
8
0
10
-4.854339
20
-1.758150
0
VERTEX
8
0
10
-4.839409
20
-1.743220
0
VERTEX
8
0
10
-4.839409
20
-1.663079
0
VERTEX
8
0
10
-4.854339
20
-1.648150
0
SEQEND
8
0
0
POLYLINE
8
0
66
1
70
1
40
0
41
0
0
VERTEX
8
0
10
-4.954339
20
-1.648150
0
VERTEX
8
0
10
-4.994480
20
-1.648150
0
VERTEX
8
0
10
-5.009409
20
-1.663079
0
VERTEX
8
0
10
-5.009409
20
-1.743220
0
VERTEX
8
0
10
-4.994480
20
-1.758150
0
VERTEX
8
0
10
-4.954339
20
-1.758150
0
VERTEX
8
0
10
-4.939409
20
-1.743220
0
VERTEX
8
0
10
-4.939409
20
-1.663079
0
VERTEX
8
0
10
-4.954339
20
-1.648150
0
SEQEND
8
0
0
POLYLINE
8
0
66
1
70
1
40
0
41
0
0
VERTEX
8
0
10
-5.054339
20
-1.648150
0
VERTEX
8
0
10
-5.094480
20
-1.648150
0
VERTEX
8
0
10
-5.109409
20
-1.663079
0
VERTEX
8
0
10
-5.109409
20
-1.743220
0
VERTEX
8
0
10
-5.094480
20
-1.758150
0
VERTEX
8
0
10
-5.054339
20
-1.758150
0
VERTEX
8
0
10
-5.039409
20
-1.743220
0
VERTEX
8
0
10
-5.039409
20
-1.663079
0
VERTEX
8
0
10
-5.054339
20
-1.648150
0
SEQEND
8
0
0
POLYLINE
8
0
66
1
70
1
40
0
41
0
0
VERTEX
8
0
10
-0.192402
20
-2.450551
0
VERTEX
8
0
10
-0.192402
20
-2.530551
0
VERTEX
8
0
10
-0.192501
20
-2.531574
0
VERTEX
8
0
10
-0.192787
20
-2.532519
0
VERTEX
8
0
10
-0.193242
20
-2.533369
0
VERTEX
8
0
10
-0.193847
20
-2.534106
0
VERTEX
8
0
10
-0.194584
20
-2.534711
0
VERTEX
8
0
10
-0.195434
20
-2.535165
0
VERTEX
8
0
10
-0.196379
20
-2.535452
0
VERTEX
8
0
10
-0.197402
20
-2.535551
0
VERTEX
8
0
10
-0.277402
20
-2.535551
0
VERTEX
8
0
10
-0.278424
20
-2.535452
0
VERTEX
8
0
10
-0.279369
20
-2.535165
0
VERTEX
8
0
10
-0.280219
20
-2.534711
0
VERTEX
8
0
10
-0.280956
20
-2.534106
0
VERTEX
8
0
10
-0.281561
20
-2.533369
0
VERTEX
8
0
10
-0.282016
20
-2.532519
0
VERTEX
8
0
10
-0.282302
20
-2.531574
0
VERTEX
8
0
10
-0.282402
20
-2.530551
0
VERTEX
8
0
10
-0.282402
20
-2.450551
0
VERTEX
8
0
10
-0.282302
20
-2.449529
0
VERTEX
8
0
10
-0.282016
20
-2.448583
0
VERTEX
8
0
10
-0.281561
20
-2.447733
0
VERTEX
8
0
10
-0.280956
20
-2.446996
0
VERTEX
8
0
10
-0.280219
20
-2.446392
0
VERTEX
8
0
10
-0.279369
20
-2.445937
0
VERTEX
8
0
10
-0.278424
20
-2.445651
0
VERTEX
8
0
10
-0.277402
20
-2.445551
0
VERTEX
8
0
10
-0.197402
20
-2.445551
0
VERTEX
8
0
10
-0.196379
20
-2.445651
0
VERTEX
8
0
10
-0.195434
20
-2.445937
0
VERTEX
8
0
10
-0.194584
20
-2.446392
0
VERTEX
8
0
10
-0.193847
20
-2.446996
0
VERTEX
8
0
10
-0.193242
20
-2.447733
0
VERTEX
8
0
10
-0.192787
20
-2.448583
0
VERTEX
8
0
10
-0.192501
20
-2.449529
0
VERTEX
8
0
10
-0.192402
20
-2.450551
0
SEQEND
8
0
0
POLYLINE
8
0
66
1
70
1
40
0
41
0
0
VERTEX
8
0
10
-0.192402
20
-2.550551
0
VERTEX
8
0
10
-0.192402
20
-2.630551
0
VERTEX
8
0
10
-0.192501
20
-2.631574
0
VERTEX
8
0
10
-0.192787
20
-2.632519
0
VERTEX
8
0
10
-0.193242
20
-2.633369
0
VERTEX
8
0
10
-0.193847
20
-2.634106
0
VERTEX
8
0
10
-0.194584
20
-2.634711
0
VERTEX
8
0
10
-0.195434
20
-2.635165
0
VERTEX
8
0
10
-0.196379
20
-2.635452
0
VERTEX
8
0
10
-0.197402
20
-2.635551
0
VERTEX
8
0
10
-0.277402
20
-2.635551
0
VERTEX
8
0
10
-0.278424
20
-2.635452
0
VERTEX
8
0
10
-0.279369
20
-2.635165
0
VERTEX
8
0
10
-0.280219
20
-2.634711
0
VERTEX
8
0
10
-0.280956
20
-2.634106
0
VERTEX
8
0
10
-0.281561
20
-2.633369
0
VERTEX
8
0
10
-0.282016
20
-2.632519
0
VERTEX
8
0
10
-0.282302
20
-2.631574
0
VERTEX
8
0
10
-0.282402
20
-2.630551
0
VERTEX
8
0
10
-0.282402
20
-2.550551
0
VERTEX
8
0
10
-0.282302
20
-2.549529
0
VERTEX
8
0
10
-0.282016
20
-2.548583
0
VERTEX
8
0
10
-0.281561
20
-2.547733
0
VERTEX
8
0
10
-0.280956
20
-2.546996
0
VERTEX
8
0
10
-0.280219
20
-2.546392
0
VERTEX
8
0
10
-0.279369
20
-2.545937
0
VERTEX
8
0
10
-0.278424
20
-2.545651
0
VERTEX
8
0
10
-0.277402
20
-2.545551
0
VERTEX
8
0
10
-0.197402
20
-2.545551
0
VERTEX
8
0
10
-0.196379
20
-2.545651
0
VERTEX
8
0
10
-0.195434
20
-2.545937
0
VERTEX
8
0
10
-0.194584
20
-2.546392
0
VERTEX
8
0
10
-0.193847
20
-2.546996
0
VERTEX
8
0
10
-0.193242
20
-2.547733
0
VERTEX
8
0
10
-0.192787
20
-2.548583
0
VERTEX
8
0
10
-0.192501
20
-2.549529
0
VERTEX
8
0
10
-0.192402
20
-2.550551
0
SEQEND
8
0
0
POLYLINE
8
0
66
1
70
1
40
0
41
0
0
VERTEX
8
0
10
0.595000
20
-2.450551
0
VERTEX
8
0
10
0.595000
20
-2.530551
0
VERTEX
8
0
10
0.594900
20
-2.531574
0
VERTEX
8
0
10
0.594614
20
-2.532519
0
VERTEX
8
0
10
0.594159
20
-2.533369
0
VERTEX
8
0
10
0.593555
20
-2.534106
0
VERTEX
8
0
10
0.592818
20
-2.534711
0
VERTEX
8
0
10
0.591968
20
-2.535165
0
VERTEX
8
0
10
0.591022
20
-2.535452
0
VERTEX
8
0
10
0.590000
20
-2.535551
0
VERTEX
8
0
10
0.510000
20
-2.535551
0
VERTEX
8
0
10
0.508978
20
-2.535452
0
VERTEX
8
0
10
0.508032
20
-2.535165
0
VERTEX
8
0
10
0.507182
20
-2.534711
0
VERTEX
8
0
10
0.506445
20
-2.534106
0
VERTEX
8
0
10
0.505841
20
-2.533369
0
VERTEX
8
0
10
0.505386
20
-2.532519
0
VERTEX
8
0
10
0.505100
20
-2.531574
0
VERTEX
8
0
10
0.505000
20
-2.530551
0
VERTEX
8
0
10
0.505000
20
-2.450551
0
VERTEX
8
0
10
0.505100
20
-2.449529
0
VERTEX
8
0
10
0.505386
20
-2.448583
0
VERTEX
8
0
10
0.505841
20
-2.447733
0
VERTEX
8
0
10
0.506445
20
-2.446996
0
VERTEX
8
0
10
0.507182
20
-2.446392
0
VERTEX
8
0
10
0.508032
20
-2.445937
0
VERTEX
8
0
10
0.508978
20
-2.445651
0
VERTEX
8
0
10
0.510000
20
-2.445551
0
VERTEX
8
0
10
0.590000
20
-2.445551
0
VERTEX
8
0
10
0.591022
20
-2.445651
0
VERTEX
8
0
10
0.591968
20
-2.445937
0
VERTEX
8
0
10
0.592818
20
-2.446392
0
VERTEX
8
0
10
0.593555
20
-2.446996
0
VERTEX
8
0
10
0.594159
20
-2.447733
0
VERTEX
8
0
10
0.594614
20
-2.448583
0
VERTEX
8
0
10
0.594900
20
-2.449529
0
VERTEX
8
0
10
0.595000
20
-2.450551
0
SEQEND
8
0
0
POLYLINE
8
0
66
1
70
1
40
0
41
0
0
VERTEX
8
0
10
0.595000
20
-2.550551
0
VERTEX
8
0
10
0.595000
20
-2.630551
0
VERTEX
8
0
10
0.594900
20
-2.631574
0
VERTEX
8
0
10
0.594614
20
-2.632519
0
VERTEX
8
0
10
0.594159
20
-2.633369
0
VERTEX
8
0
10
0.593555
20
-2.634106
0
VERTEX
8
0
10
0.592818
20
-2.634711
0
VERTEX
8
0
10
0.591968
20
-2.635165
0
VERTEX
8
0
10
0.591022
20
-2.635452
0
VERTEX
8
0
10
0.590000
20
-2.635551
0
VERTEX
8
0
10
0.510000
20
-2.635551
0
VERTEX
8
0
10
0.508978
20
-2.635452
0
VERTEX
8
0
10
0.508032
20
-2.635165
0
VERTEX
8
0
10
0.507182
20
-2.634711
0
VERTEX
8
0
10
0.506445
20
-2.634106
0
VERTEX
8
0
10
0.505841
20
-2.633369
0
VERTEX
8
0
10
0.505386
20
-2.632519
0
VERTEX
8
0
10
0.505100
20
-2.631574
0
VERTEX
8
0
10
0.505000
20
-2.630551
0
VERTEX
8
0
10
0.505000
20
-2.550551
0
VERTEX
8
0
10
0.505100
20
-2.549529
0
VERTEX
8
0
10
0.505386
20
-2.548583
0
VERTEX
8
0
10
0.505841
20
-2.547733
0
VERTEX
8
0
10
0.506445
20
-2.546996
0
VERTEX
8
0
10
0.507182
20
-2.546392
0
VERTEX
8
0
10
0.508032
20
-2.545937
0
VERTEX
8
0
10
0.508978
20
-2.545651
0
VERTEX
8
0
10
0.510000
20
-2.545551
0
VERTEX
8
0
10
0.590000
20
-2.545551
0
VERTEX
8
0
10
0.591022
20
-2.545651
0
VERTEX
8
0
10
0.591968
20
-2.545937
0
VERTEX
8
0
10
0.592818
20
-2.546392
0
VERTEX
8
0
10
0.593555
20
-2.546996
0
VERTEX
8
0
10
0.594159
20
-2.547733
0
VERTEX
8
0
10
0.594614
20
-2.548583
0
VERTEX
8
0
10
0.594900
20
-2.549529
0
VERTEX
8
0
10
0.595000
20
-2.550551
0
SEQEND
8
0
0
POLYLINE
8
0
66
1
70
1
40
0
41
0
0
VERTEX
8
0
10
1.382402
20
-2.450551
0
VERTEX
8
0
10
1.382402
20
-2.530551
0
VERTEX
8
0
10
1.382302
20
-2.531574
0
VERTEX
8
0
10
1.382016
20
-2.532519
0
VERTEX
8
0
10
1.381561
20
-2.533369
0
VERTEX
8
0
10
1.380956
20
-2.534106
0
VERTEX
8
0
10
1.380219
20
-2.534711
0
VERTEX
8
0
10
1.379369
20
-2.535165
0
VERTEX
8
0
10
1.378424
20
-2.535452
0
VERTEX
8
0
10
1.377402
20
-2.535551
0
VERTEX
8
0
10
1.297402
20
-2.535551
0
VERTEX
8
0
10
1.296379
20
-2.535452
0
VERTEX
8
0
10
1.295434
20
-2.535165
0
VERTEX
8
0
10
1.294584
20
-2.534711
0
VERTEX
8
0
10
1.293847
20
-2.534106
0
VERTEX
8
0
10
1.293242
20
-2.533369
0
VERTEX
8
0
10
1.292787
20
-2.532519
0
VERTEX
8
0
10
1.292501
20
-2.531574
0
VERTEX
8
0
10
1.292402
20
-2.530551
0
VERTEX
8
0
10
1.292402
20
-2.450551
0
VERTEX
8
0
10
1.292501
20
-2.449529
0
VERTEX
8
0
10
1.292787
20
-2.448583
0
VERTEX
8
0
10
1.293242
20
-2.447733
0
VERTEX
8
0
10
1.293847
20
-2.446996
0
VERTEX
8
0
10
1.294584
20
-2.446392
0
VERTEX
8
0
10
1.295434
20
-2.445937
0
VERTEX
8
0
10
1.296379
20
-2.445651
0
VERTEX
8
0
10
1.297402
20
-2.445551
0
VERTEX
8
0
10
1.377402
20
-2.445551
0
VERTEX
8
0
10
1.378424
20
-2.445651
0
VERTEX
8
0
10
1.379369
20
-2.445937
0
VERTEX
8
0
10
1.380219
20
-2.446392
0
VERTEX
8
0
10
1.380956
20
-2.446996
0
VERTEX
8
0
10
1.381561
20
-2.447733
0
VERTEX
8
0
10
1.382016
20
-2.448583
0
VERTEX
8
0
10
1.382302
20
-2.449529
0
VERTEX
8
0
10
1.382402
20
-2.450551
0
SEQEND
8
0
0
POLYLINE
8
0
66
1
70
1
40
0
41
0
0
VERTEX
8
0
10
1.382402
20
-2.550551
0
VERTEX
8
0
10
1.382402
20
-2.630551
0
VERTEX
8
0
10
1.382302
20
-2.631574
0
VERTEX
8
0
10
1.382016
20
-2.632519
0
VERTEX
8
0
10
1.381561
20
-2.633369
0
VERTEX
8
0
10
1.380956
20
-2.634106
0
VERTEX
8
0
10
1.380219
20
-2.634711
0
VERTEX
8
0
10
1.379369
20
-2.635165
0
VERTEX
8
0
10
1.378424
20
-2.635452
0
VERTEX
8
0
10
1.377402
20
-2.635551
0
VERTEX
8
0
10
1.297402
20
-2.635551
0
VERTEX
8
0
10
1.296379
20
-2.635452
0
VERTEX
8
0
10
1.295434
20
-2.635165
0
VERTEX
8
0
10
1.294584
20
-2.634711
0
VERTEX
8
0
10
1.293847
20
-2.634106
0
VERTEX
8
0
10
1.293242
20
-2.633369
0
VERTEX
8
0
10
1.292787
20
-2.632519
0
VERTEX
8
0
10
1.292501
20
-2.631574
0
VERTEX
8
0
10
1.292402
20
-2.630551
0
VERTEX
8
0
10
1.292402
20
-2.550551
0
VERTEX
8
0
10
1.292501
20
-2.549529
0
VERTEX
8
0
10
1.292787
20
-2.548583
0
VERTEX
8
0
10
1.293242
20
-2.547733
0
VERTEX
8
0
10
1.293847
20
-2.546996
0
VERTEX
8
0
10
1.294584
20
-2.546392
0
VERTEX
8
0
10
1.295434
20
-2.545937
0
VERTEX
8
0
10
1.296379
20
-2.545651
0
VERTEX
8
0
10
1.297402
20
-2.545551
0
VERTEX
8
0
10
1.377402
20
-2.545551
0
VERTEX
8
0
10
1.378424
20
-2.545651
0
VERTEX
8
0
10
1.379369
20
-2.545937
0
VERTEX
8
0
10
1.380219
20
-2.546392
0
VERTEX
8
0
10
1.380956
20
-2.546996
0
VERTEX
8
0
10
1.381561
20
-2.547733
0
VERTEX
8
0
10
1.382016
20
-2.548583
0
VERTEX
8
0
10
1.382302
20
-2.549529
0
VERTEX
8
0
10
1.382402
20
-2.550551
0
SEQEND
8
0
0
POLYLINE
8
0
66
1
70
1
40
0
41
0
0
VERTEX
8
0
10
2.169803
20
-2.450551
0
VERTEX
8
0
10
2.169803
20
-2.530551
0
VERTEX
8
0
10
2.169704
20
-2.531574
0
VERTEX
8
0
10
2.169417
20
-2.532519
0
VERTEX
8
0
10
2.168963
20
-2.533369
0
VERTEX
8
0
10
2.168358
20
-2.534106
0
VERTEX
8
0
10
2.167621
20
-2.534711
0
VERTEX
8
0
10
2.166771
20
-2.535165
0
VERTEX
8
0
10
2.165826
20
-2.535452
0
VERTEX
8
0
10
2.164803
20
-2.535551
0
VERTEX
8
0
10
2.084803
20
-2.535551
0
VERTEX
8
0
10
2.083781
20
-2.535452
0
VERTEX
8
0
10
2.082835
20
-2.535165
0
VERTEX
8
0
10
2.081985
20
-2.534711
0
VERTEX
8
0
10
2.081248
20
-2.534106
0
VERTEX
8
0
10
2.080644
20
-2.533369
0
VERTEX
8
0
10
2.080189
20
-2.532519
0
VERTEX
8
0
10
2.079903
20
-2.531574
0
VERTEX
8
0
10
2.079803
20
-2.530551
0
VERTEX
8
0
10
2.079803
20
-2.450551
0
VERTEX
8
0
10
2.079903
20
-2.449529
0
VERTEX
8
0
10
2.080189
20
-2.448583
0
VERTEX
8
0
10
2.080644
20
-2.447733
0
VERTEX
8
0
10
2.081248
20
-2.446996
0
VERTEX
8
0
10
2.081985
20
-2.446392
0
VERTEX
8
0
10
2.082835
20
-2.445937
0
VERTEX
8
0
10
2.083781
20
-2.445651
0
VERTEX
8
0
10
2.084803
20
-2.445551
0
VERTEX
8
0
10
2.164803
20
-2.445551
0
VERTEX
8
0
10
2.165826
20
-2.445651
0
VERTEX
8
0
10
2.166771
20
-2.445937
0
VERTEX
8
0
10
2.167621
20
-2.446392
0
VERTEX
8
0
10
2.168358
20
-2.446996
0
VERTEX
8
0
10
2.168963
20
-2.447733
0
VERTEX
8
0
10
2.169417
20
-2.448583
0
VERTEX
8
0
10
2.169704
20
-2.449529
0
VERTEX
8
0
10
2.169803
20
-2.450551
0
SEQEND
8
0
0
POLYLINE
8
0
66
1
70
1
40
0
41
0
0
VERTEX
8
0
10
2.169803
20
-2.550551
0
VERTEX
8
0
10
2.169803
20
-2.630551
0
VERTEX
8
0
10
2.169704
20
-2.631574
0
VERTEX
8
0
10
2.169417
20
-2.632519
0
VERTEX
8
0
10
2.168963
20
-2.633369
0
VERTEX
8
0
10
2.168358
20
-2.634106
0
VERTEX
8
0
10
2.167621
20
-2.634711
0
VERTEX
8
0
10
2.166771
20
-2.635165
0
VERTEX
8
0
10
2.165826
20
-2.635452
0
VERTEX
8
0
10
2.164803
20
-2.635551
0
VERTEX
8
0
10
2.084803
20
-2.635551
0
VERTEX
8
0
10
2.083781
20
-2.635452
0
VERTEX
8
0
10
2.082835
20
-2.635165
0
VERTEX
8
0
10
2.081985
20
-2.634711
0
VERTEX
8
0
10
2.081248
20
-2.634106
0
VERTEX
8
0
10
2.080644
20
-2.633369
0
VERTEX
8
0
10
2.080189
20
-2.632519
0
VERTEX
8
0
10
2.079903
20
-2.631574
0
VERTEX
8
0
10
2.079803
20
-2.630551
0
VERTEX
8
0
10
2.079803
20
-2.550551
0
VERTEX
8
0
10
2.079903
20
-2.549529
0
VERTEX
8
0
10
2.080189
20
-2.548583
0
VERTEX
8
0
10
2.080644
20
-2.547733
0
VERTEX
8
0
10
2.081248
20
-2.546996
0
VERTEX
8
0
10
2.081985
20
-2.546392
0
VERTEX
8
0
10
2.082835
20
-2.545937
0
VERTEX
8
0
10
2.083781
20
-2.545651
0
VERTEX
8
0
10
2.084803
20
-2.545551
0
VERTEX
8
0
10
2.164803
20
-2.545551
0
VERTEX
8
0
10
2.165826
20
-2.545651
0
VERTEX
8
0
10
2.166771
20
-2.545937
0
VERTEX
8
0
10
2.167621
20
-2.546392
0
VERTEX
8
0
10
2.168358
20
-2.546996
0
VERTEX
8
0
10
2.168963
20
-2.547733
0
VERTEX
8
0
10
2.169417
20
-2.548583
0
VERTEX
8
0
10
2.169704
20
-2.549529
0
VERTEX
8
0
10
2.169803
20
-2.550551
0
SEQEND
8
0
0
POLYLINE
8
0
66
1
70
1
40
0
41
0
0
VERTEX
8
0
10
2.957205
20
-2.450551
0
VERTEX
8
0
10
2.957205
20
-2.530551
0
VERTEX
8
0
10
2.957105
20
-2.531574
0
VERTEX
8
0
10
2.956819
20
-2.532519
0
VERTEX
8
0
10
2.956364
20
-2.533369
0
VERTEX
8
0
10
2.955759
20
-2.534106
0
VERTEX
8
0
10
2.955022
20
-2.534711
0
VERTEX
8
0
10
2.954172
20
-2.535165
0
VERTEX
8
0
10
2.953227
20
-2.535452
0
VERTEX
8
0
10
2.952205
20
-2.535551
0
VERTEX
8
0
10
2.872205
20
-2.535551
0
VERTEX
8
0
10
2.871182
20
-2.535452
0
VERTEX
8
0
10
2.870237
20
-2.535165
0
VERTEX
8
0
10
2.869387
20
-2.534711
0
VERTEX
8
0
10
2.868650
20
-2.534106
0
VERTEX
8
0
10
2.868045
20
-2.533369
0
VERTEX
8
0
10
2.867591
20
-2.532519
0
VERTEX
8
0
10
2.867304
20
-2.531574
0
VERTEX
8
0
10
2.867205
20
-2.530551
0
VERTEX
8
0
10
2.867205
20
-2.450551
0
VERTEX
8
0
10
2.867304
20
-2.449529
0
VERTEX
8
0
10
2.867591
20
-2.448583
0
VERTEX
8
0
10
2.868045
20
-2.447733
0
VERTEX
8
0
10
2.868650
20
-2.446996
0
VERTEX
8
0
10
2.869387
20
-2.446392
0
VERTEX
8
0
10
2.870237
20
-2.445937
0
VERTEX
8
0
10
2.871182
20
-2.445651
0
VERTEX
8
0
10
2.872205
20
-2.445551
0
VERTEX
8
0
10
2.952205
20
-2.445551
0
VERTEX
8
0
10
2.953227
20
-2.445651
0
VERTEX
8
0
10
2.954172
20
-2.445937
0
VERTEX
8
0
10
2.955022
20
-2.446392
0
VERTEX
8
0
10
2.955759
20
-2.446996
0
VERTEX
8
0
10
2.956364
20
-2.447733
0
VERTEX
8
0
10
2.956819
20
-2.448583
0
VERTEX
8
0
10
2.957105
20
-2.449529
0
VERTEX
8
0
10
2.957205
20
-2.450551
0
SEQEND
8
0
0
POLYLINE
8
0
66
1
70
1
40
0
41
0
0
VERTEX
8
0
10
2.957205
20
-2.550551
0
VERTEX
8
0
10
2.957205
20
-2.630551
0
VERTEX
8
0
10
2.957105
20
-2.631574
0
VERTEX
8
0
10
2.956819
20
-2.632519
0
VERTEX
8
0
10
2.956364
20
-2.633369
0
VERTEX
8
0
10
2.955759
20
-2.634106
0
VERTEX
8
0
10
2.955022
20
-2.634711
0
VERTEX
8
0
10
2.954172
20
-2.635165
0
VERTEX
8
0
10
2.953227
20
-2.635452
0
VERTEX
8
0
10
2.952205
20
-2.635551
0
VERTEX
8
0
10
2.872205
20
-2.635551
0
VERTEX
8
0
10
2.871182
20
-2.635452
0
VERTEX
8
0
10
2.870237
20
-2.635165
0
VERTEX
8
0
10
2.869387
20
-2.634711
0
VERTEX
8
0
10
2.868650
20
-2.634106
0
VERTEX
8
0
10
2.868045
20
-2.633369
0
VERTEX
8
0
10
2.867591
20
-2.632519
0
VERTEX
8
0
10
2.867304
20
-2.631574
0
VERTEX
8
0
10
2.867205
20
-2.630551
0
VERTEX
8
0
10
2.867205
20
-2.550551
0
VERTEX
8
0
10
2.867304
20
-2.549529
0
VERTEX
8
0
10
2.867591
20
-2.548583
0
VERTEX
8
0
10
2.868045
20
-2.547733
0
VERTEX
8
0
10
2.868650
20
-2.546996
0
VERTEX
8
0
10
2.869387
20
-2.546392
0
VERTEX
8
0
10
2.870237
20
-2.545937
0
VERTEX
8
0
10
2.871182
20
-2.545651
0
VERTEX
8
0
10
2.872205
20
-2.545551
0
VERTEX
8
0
10
2.952205
20
-2.545551
0
VERTEX
8
0
10
2.953227
20
-2.545651
0
VERTEX
8
0
10
2.954172
20
-2.545937
0
VERTEX
8
0
10
2.955022
20
-2.546392
0
VERTEX
8
0
10
2.955759
20
-2.546996
0
VERTEX
8
0
10
2.956364
20
-2.547733
0
VERTEX
8
0
10
2.956819
20
-2.548583
0
VERTEX
8
0
10
2.957105
20
-2.549529
0
VERTEX
8
0
10
2.957205
20
-2.550551
0
SEQEND
8
0
0
POLYLINE
8
0
66
1
70
1
40
0
41
0
0
VERTEX
8
0
10
3.744606
20
-2.450551
0
VERTEX
8
0
10
3.744606
20
-2.530551
0
VERTEX
8
0
10
3.744507
20
-2.531574
0
VERTEX
8
0
10
3.744220
20
-2.532519
0
VERTEX
8
0
10
3.743766
20
-2.533369
0
VERTEX
8
0
10
3.743161
20
-2.534106
0
VERTEX
8
0
10
3.742424
20
-2.534711
0
VERTEX
8
0
10
3.741574
20
-2.535165
0
VERTEX
8
0
10
3.740629
20
-2.535452
0
VERTEX
8
0
10
3.739606
20
-2.535551
0
VERTEX
8
0
10
3.659606
20
-2.535551
0
VERTEX
8
0
10
3.658584
20
-2.535452
0
VERTEX
8
0
10
3.657639
20
-2.535165
0
VERTEX
8
0
10
3.656789
20
-2.534711
0
VERTEX
8
0
10
3.656052
20
-2.534106
0
VERTEX
8
0
10
3.655447
20
-2.533369
0
VERTEX
8
0
10
3.654992
20
-2.532519
0
VERTEX
8
0
10
3.654706
20
-2.531574
0
VERTEX
8
0
10
3.654606
20
-2.530551
0
VERTEX
8
0
10
3.654606
20
-2.450551
0
VERTEX
8
0
10
3.654706
20
-2.449529
0
VERTEX
8
0
10
3.654992
20
-2.448583
0
VERTEX
8
0
10
3.655447
20
-2.447733
0
VERTEX
8
0
10
3.656052
20
-2.446996
0
VERTEX
8
0
10
3.656789
20
-2.446392
0
VERTEX
8
0
10
3.657639
20
-2.445937
0
VERTEX
8
0
10
3.658584
20
-2.445651
0
VERTEX
8
0
10
3.659606
20
-2.445551
0
VERTEX
8
0
10
3.739606
20
-2.445551
0
VERTEX
8
0
10
3.740629
20
-2.445651
0
VERTEX
8
0
10
3.741574
20
-2.445937
0
VERTEX
8
0
10
3.742424
20
-2.446392
0
VERTEX
8
0
10
3.743161
20
-2.446996
0
VERTEX
8
0
10
3.743766
20
-2.447733
0
VERTEX
8
0
10
3.744220
20
-2.448583
0
VERTEX
8
0
10
3.744507
20
-2.449529
0
VERTEX
8
0
10
3.744606
20
-2.450551
0
SEQEND
8
0
0
POLYLINE
8
0
66
1
70
1
40
0
41
0
0
VERTEX
8
0
10
3.744606
20
-2.550551
0
VERTEX
8
0
10
3.744606
20
-2.630551
0
VERTEX
8
0
10
3.744507
20
-2.631574
0
VERTEX
8
0
10
3.744220
20
-2.632519
0
VERTEX
8
0
10
3.743766
20
-2.633369
0
VERTEX
8
0
10
3.743161
20
-2.634106
0
VERTEX
8
0
10
3.742424
20
-2.634711
0
VERTEX
8
0
10
3.741574
20
-2.635165
0
VERTEX
8
0
10
3.740629
20
-2.635452
0
VERTEX
8
0
10
3.739606
20
-2.635551
0
VERTEX
8
0
10
3.659606
20
-2.635551
0
VERTEX
8
0
10
3.658584
20
-2.635452
0
VERTEX
8
0
10
3.657639
20
-2.635165
0
VERTEX
8
0
10
3.656789
20
-2.634711
0
VERTEX
8
0
10
3.656052
20
-2.634106
0
VERTEX
8
0
10
3.655447
20
-2.633369
0
VERTEX
8
0
10
3.654992
20
-2.632519
0
VERTEX
8
0
10
3.654706
20
-2.631574
0
VERTEX
8
0
10
3.654606
20
-2.630551
0
VERTEX
8
0
10
3.654606
20
-2.550551
0
VERTEX
8
0
10
3.654706
20
-2.549529
0
VERTEX
8
0
10
3.654992
20
-2.548583
0
VERTEX
8
0
10
3.655447
20
-2.547733
0
VERTEX
8
0
10
3.656052
20
-2.546996
0
VERTEX
8
0
10
3.656789
20
-2.546392
0
VERTEX
8
0
10
3.657639
20
-2.545937
0
VERTEX
8
0
10
3.658584
20
-2.545651
0
VERTEX
8
0
10
3.659606
20
-2.545551
0
VERTEX
8
0
10
3.739606
20
-2.545551
0
VERTEX
8
0
10
3.740629
20
-2.545651
0
VERTEX
8
0
10
3.741574
20
-2.545937
0
VERTEX
8
0
10
3.742424
20
-2.546392
0
VERTEX
8
0
10
3.743161
20
-2.546996
0
VERTEX
8
0
10
3.743766
20
-2.547733
0
VERTEX
8
0
10
3.744220
20
-2.548583
0
VERTEX
8
0
10
3.744507
20
-2.549529
0
VERTEX
8
0
10
3.744606
20
-2.550551
0
SEQEND
8
0
0
INSERT
8
0
2
EPAD
10
-0.237402
20
-1.801575
41
0.080000
42
0.080000
0
INSERT
8
0
2
EPAD
10
-0.237402
20
-2.201575
41
0.080000
42
0.080000
0
INSERT
8
0
2
EPAD
10
0.550000
20
-1.801575
41
0.080000
42
0.080000
0
INSERT
8
0
2
EPAD
10
0.550000
20
-2.201575
41
0.080000
42
0.080000
0
INSERT
8
0
2
EPAD
10
1.337402
20
-1.801575
41
0.080000
42
0.080000
0
INSERT
8
0
2
EPAD
10
1.337402
20
-2.201575
41
0.080000
42
0.080000
0
INSERT
8
0
2
EPAD
10
2.124803
20
-1.801575
41
0.080000
42
0.080000
0
INSERT
8
0
2
EPAD
10
2.124803
20
-2.201575
41
0.080000
42
0.080000
0
INSERT
8
0
2
EPAD
10
2.912205
20
-1.801575
41
0.080000
42
0.080000
0
INSERT
8
0
2
EPAD
10
2.912205
20
-2.201575
41
0.080000
42
0.080000
0
INSERT
8
0
2
EPAD
10
3.699606
20
-1.801575
41
0.080000
42
0.080000
0
INSERT
8
0
2
EPAD
10
3.699606
20
-2.201575
41
0.080000
42
0.080000
0
POLYLINE
8
0
66
1
70
1
40
0
41
0
0
VERTEX
8
0
10
1.754323
20
2.682559
0
VERTEX
8
0
10
1.714181
20
2.682559
0
VERTEX
8
0
10
1.699252
20
2.667630
0
VERTEX
8
0
10
1.699252
20
2.587488
0
VERTEX
8
0
10
1.714181
20
2.572559
0
VERTEX
8
0
10
1.754323
20
2.572559
0
VERTEX
8
0
10
1.769252
20
2.587488
0
VERTEX
8
0
10
1.769252
20
2.667630
0
VERTEX
8
0
10
1.754323
20
2.682559
0
SEQEND
8
0
0
POLYLINE
8
0
66
1
70
1
40
0
41
0
0
VERTEX
8
0
10
1.654323
20
2.682559
0
VERTEX
8
0
10
1.614181
20
2.682559
0
VERTEX
8
0
10
1.599252
20
2.667630
0
VERTEX
8
0
10
1.599252
20
2.587488
0
VERTEX
8
0
10
1.614181
20
2.572559
0
VERTEX
8
0
10
1.654323
20
2.572559
0
VERTEX
8
0
10
1.669252
20
2.587488
0
VERTEX
8
0
10
1.669252
20
2.667630
0
VERTEX
8
0
10
1.654323
20
2.682559
0
SEQEND
8
0
0
POLYLINE
8
0
66
1
70
1
40
0
41
0
0
VERTEX
8
0
10
1.554323
20
2.682559
0
VERTEX
8
0
10
1.514181
20
2.682559
0
VERTEX
8
0
10
1.499252
20
2.667630
0
VERTEX
8
0
10
1.499252
20
2.587488
0
VERTEX
8
0
10
1.514181
20
2.572559
0
VERTEX
8
0
10
1.554323
20
2.572559
0
VERTEX
8
0
10
1.569252
20
2.587488
0
VERTEX
8
0
10
1.569252
20
2.667630
0
VERTEX
8
0
10
1.554323
20
2.682559
0
SEQEND
8
0
0
POLYLINE
8
0
66
1
70
1
40
0
41
0
0
VERTEX
8
0
10
1.454323
20
2.682559
0
VERTEX
8
0
10
1.414181
20
2.682559
0
VERTEX
8
0
10
1.399252
20
2.667630
0
VERTEX
8
0
10
1.399252
20
2.587488
0
VERTEX
8
0
10
1.414181
20
2.572559
0
VERTEX
8
0
10
1.454323
20
2.572559
0
VERTEX
8
0
10
1.469252
20
2.587488
0
VERTEX
8
0
10
1.469252
20
2.667630
0
VERTEX
8
0
10
1.454323
20
2.682559
0
SEQEND
8
0
0
POLYLINE
8
0
66
1
70
1
40
0
41
0
0
VERTEX
8
0
10
1.354323
20
2.682559
0
VERTEX
8
0
10
1.314181
20
2.682559
0
VERTEX
8
0
10
1.299252
20
2.667630
0
VERTEX
8
0
10
1.299252
20
2.587488
0
VERTEX
8
0
10
1.314181
20
2.572559
0
VERTEX
8
0
10
1.354323
20
2.572559
0
VERTEX
8
0
10
1.369252
20
2.587488
0
VERTEX
8
0
10
1.369252
20
2.667630
0
VERTEX
8
0
10
1.354323
20
2.682559
0
SEQEND
8
0
0
POLYLINE
8
0
66
1
70
1
40
0
41
0
0
VERTEX
8
0
10
1.254323
20
2.682559
0
VERTEX
8
0
10
1.214181
20
2.682559
0
VERTEX
8
0
10
1.199252
20
2.667630
0
VERTEX
8
0
10
1.199252
20
2.587488
0
VERTEX
8
0
10
1.214181
20
2.572559
0
VERTEX
8
0
10
1.254323
20
2.572559
0
VERTEX
8
0
10
1.269252
20
2.587488
0
VERTEX
8
0
10
1.269252
20
2.667630
0
VERTEX
8
0
10
1.254323
20
2.682559
0
SEQEND
8
0
0
POLYLINE
8
0
66
1
70
1
40
0
41
0
0
VERTEX
8
0
10
1.154323
20
2.682559
0
VERTEX
8
0
10
1.114181
20
2.682559
0
VERTEX
8
0
10
1.099252
20
2.667630
0
VERTEX
8
0
10
1.099252
20
2.587488
0
VERTEX
8
0
10
1.114181
20
2.572559
0
VERTEX
8
0
10
1.154323
20
2.572559
0
VERTEX
8
0
10
1.169252
20
2.587488
0
VERTEX
8
0
10
1.169252
20
2.667630
0
VERTEX
8
0
10
1.154323
20
2.682559
0
SEQEND
8
0
0
POLYLINE
8
0
66
1
70
1
40
0
41
0
0
VERTEX
8
0
10
1.054323
20
2.682559
0
VERTEX
8
0
10
1.014181
20
2.682559
0
VERTEX
8
0
10
0.999252
20
2.667630
0
VERTEX
8
0
10
0.999252
20
2.587488
0
VERTEX
8
0
10
1.014181
20
2.572559
0
VERTEX
8
0
10
1.054323
20
2.572559
0
VERTEX
8
0
10
1.069252
20
2.587488
0
VERTEX
8
0
10
1.069252
20
2.667630
0
VERTEX
8
0
10
1.054323
20
2.682559
0
SEQEND
8
0
0
POLYLINE
8
0
66
1
70
1
40
0
41
0
0
VERTEX
8
0
10
0.955898
20
2.682559
0
VERTEX
8
0
10
0.915756
20
2.682559
0
VERTEX
8
0
10
0.900827
20
2.667630
0
VERTEX
8
0
10
0.900827
20
2.587488
0
VERTEX
8
0
10
0.915756
20
2.572559
0
VERTEX
8
0
10
0.955898
20
2.572559
0
VERTEX
8
0
10
0.970827
20
2.587488
0
VERTEX
8
0
10
0.970827
20
2.667630
0
VERTEX
8
0
10
0.955898
20
2.682559
0
SEQEND
8
0
0
POLYLINE
8
0
66
1
70
1
40
0
41
0
0
VERTEX
8
0
10
0.855898
20
2.682559
0
VERTEX
8
0
10
0.815756
20
2.682559
0
VERTEX
8
0
10
0.800827
20
2.667630
0
VERTEX
8
0
10
0.800827
20
2.587488
0
VERTEX
8
0
10
0.815756
20
2.572559
0
VERTEX
8
0
10
0.855898
20
2.572559
0
VERTEX
8
0
10
0.870827
20
2.587488
0
VERTEX
8
0
10
0.870827
20
2.667630
0
VERTEX
8
0
10
0.855898
20
2.682559
0
SEQEND
8
0
0
POLYLINE
8
0
66
1
70
1
40
0
41
0
0
VERTEX
8
0
10
0.755898
20
2.682559
0
VERTEX
8
0
10
0.715756
20
2.682559
0
VERTEX
8
0
10
0.700827
20
2.667630
0
VERTEX
8
0
10
0.700827
20
2.587488
0
VERTEX
8
0
10
0.715756
20
2.572559
0
VERTEX
8
0
10
0.755898
20
2.572559
0
VERTEX
8
0
10
0.770827
20
2.587488
0
VERTEX
8
0
10
0.770827
20
2.667630
0
VERTEX
8
0
10
0.755898
20
2.682559
0
SEQEND
8
0
0
POLYLINE
8
0
66
1
70
1
40
0
41
0
0
VERTEX
8
0
10
0.655898
20
2.682559
0
VERTEX
8
0
10
0.615756
20
2.682559
0
VERTEX
8
0
10
0.600827
20
2.667630
0
VERTEX
8
0
10
0.600827
20
2.587488
0
VERTEX
8
0
10
0.615756
20
2.572559
0
VERTEX
8
0
10
0.655898
20
2.572559
0
VERTEX
8
0
10
0.670827
20
2.587488
0
VERTEX
8
0
10
0.670827
20
2.667630
0
VERTEX
8
0
10
0.655898
20
2.682559
0
SEQEND
8
0
0
POLYLINE
8
0
66
1
70
1
40
0
41
0
0
VERTEX
8
0
10
0.555898
20
2.682559
0
VERTEX
8
0
10
0.515756
20
2.682559
0
VERTEX
8
0
10
0.500827
20
2.667630
0
VERTEX
8
0
10
0.500827
20
2.587488
0
VERTEX
8
0
10
0.515756
20
2.572559
0
VERTEX
8
0
10
0.555898
20
2.572559
0
VERTEX
8
0
10
0.570827
20
2.587488
0
VERTEX
8
0
10
0.570827
20
2.667630
0
VERTEX
8
0
10
0.555898
20
2.682559
0
SEQEND
8
0
0
POLYLINE
8
0
66
1
70
1
40
0
41
0
0
VERTEX
8
0
10
0.455898
20
2.682559
0
VERTEX
8
0
10
0.415756
20
2.682559
0
VERTEX
8
0
10
0.400827
20
2.667630
0
VERTEX
8
0
10
0.400827
20
2.587488
0
VERTEX
8
0
10
0.415756
20
2.572559
0
VERTEX
8
0
10
0.455898
20
2.572559
0
VERTEX
8
0
10
0.470827
20
2.587488
0
VERTEX
8
0
10
0.470827
20
2.667630
0
VERTEX
8
0
10
0.455898
20
2.682559
0
SEQEND
8
0
0
POLYLINE
8
0
66
1
70
1
40
0
41
0
0
VERTEX
8
0
10
0.355898
20
2.682559
0
VERTEX
8
0
10
0.315756
20
2.682559
0
VERTEX
8
0
10
0.300827
20
2.667630
0
VERTEX
8
0
10
0.300827
20
2.587488
0
VERTEX
8
0
10
0.315756
20
2.572559
0
VERTEX
8
0
10
0.355898
20
2.572559
0
VERTEX
8
0
10
0.370827
20
2.587488
0
VERTEX
8
0
10
0.370827
20
2.667630
0
VERTEX
8
0
10
0.355898
20
2.682559
0
SEQEND
8
0
0
POLYLINE
8
0
66
1
70
1
40
0
41
0
0
VERTEX
8
0
10
0.255898
20
2.682559
0
VERTEX
8
0
10
0.215756
20
2.682559
0
VERTEX
8
0
10
0.200827
20
2.667630
0
VERTEX
8
0
10
0.200827
20
2.587488
0
VERTEX
8
0
10
0.215756
20
2.572559
0
VERTEX
8
0
10
0.255898
20
2.572559
0
VERTEX
8
0
10
0.270827
20
2.587488
0
VERTEX
8
0
10
0.270827
20
2.667630
0
VERTEX
8
0
10
0.255898
20
2.682559
0
SEQEND
8
0
0
INSERT
8
0
2
EPAD
10
4.288583
20
1.643307
41
0.090000
42
0.090000
0
INSERT
8
0
2
EPAD
10
4.488583
20
1.643307
41
0.090000
42
0.090000
0
INSERT
8
0
2
EPAD
10
4.388583
20
1.643307
41
0.090000
42
0.090000
0
INSERT
8
0
2
EPAD
10
4.585433
20
2.529134
41
0.080000
42
0.080000
0
INSERT
8
0
2
EPAD
10
4.185433
20
2.529134
41
0.080000
42
0.080000
0
INSERT
8
0
2
EPAD
10
-5.551181
20
3.838583
41
0.260000
42
0.260000
0
INSERT
8
0
2
EPAD
10
-5.551181
20
-3.838583
41
0.260000
42
0.260000
0
INSERT
8
0
2
EPAD
10
5.551181
20
3.838583
41
0.260000
42
0.260000
0
INSERT
8
0
2
EPAD
10
5.551181
20
-3.838583
41
0.260000
42
0.260000
0
POLYLINE
8
0
66
1
40
0.008000
41
0.008000
0
VERTEX
8
0
10
-4.774409
20
0.121850
0
VERTEX
8
0
10
-3.974409
20
0.121850
0
VERTEX
8
0
10
-3.974409
20
0.271850
0
VERTEX
8
0
10
-4.774409
20
0.271850
0
VERTEX
8
0
10
-4.774409
20
0.121850
0
SEQEND
8
0
0
TEXT
8
0
10
-4.249409
20
0.281850
40
0.048000
41
1.041667
71
2
1
A_PWR
0
POLYLINE
8
0
66
1
40
0.008000
41
0.008000
0
VERTEX
8
0
10
-3.874409
20
0.121850
0
VERTEX
8
0
10
-3.274409
20
0.121850
0
VERTEX
8
0
10
-3.274409
20
0.271850
0
VERTEX
8
0
10
-3.874409
20
0.271850
0
VERTEX
8
0
10
-3.874409
20
0.121850
0
SEQEND
8
0
0
TEXT
8
0
10
-3.599409
20
0.281850
40
0.048000
41
1.041667
1
A
0
POLYLINE
8
0
66
1
40
0.008000
41
0.008000
0
VERTEX
8
0
10
-4.074409
20
-1.778150
0
VERTEX
8
0
10
-3.274409
20
-1.778150
0
VERTEX
8
0
10
-3.274409
20
-1.628150
0
VERTEX
8
0
10
-4.074409
20
-1.628150
0
VERTEX
8
0
10
-4.074409
20
-1.778150
0
SEQEND
8
0
0
TEXT
8
0
10
-3.574409
20
-1.618150
40
0.048000
41
1.041667
71
2
1
D0_7
0
POLYLINE
8
0
66
1
40
0.008000
41
0.008000
0
VERTEX
8
0
10
-5.124409
20
-1.778150
0
VERTEX
8
0
10
-4.124409
20
-1.778150
0
VERTEX
8
0
10
-4.124409
20
-1.628150
0
VERTEX
8
0
10
-5.124409
20
-1.628150
0
VERTEX
8
0
10
-5.124409
20
-1.778150
0
SEQEND
8
0
0
TEXT
8
0
10
-4.499409
20
-1.618150
40
0.048000
41
1.041667
71
2
1
D8_13
0
CIRCLE
8
0
10
-0.237402
20
-2.540551
40
0.000000
0
CIRCLE
8
0
10
-0.237402
20
-2.540551
40
0.100000
0
POLYLINE
8
0
66
1
40
0.008000
41
0.008000
0
VERTEX
8
0
10
-0.137402
20
-2.415551
0
VERTEX
8
0
10
-0.137402
20
-2.465551
0
SEQEND
8
0
0
POLYLINE
8
0
66
1
40
0.008000
41
0.008000
0
VERTEX
8
0
10
-0.112402
20
-2.440551
0
VERTEX
8
0
10
-0.162402
20
-2.440551
0
SEQEND
8
0
0
TEXT
8
0
10
-0.054402
20
-2.578051
40
0.048000
41
1.041667
50
90.000000
1
D1
0
CIRCLE
8
0
10
0.550000
20
-2.540551
40
0.000000
0
CIRCLE
8
0
10
0.550000
20
-2.540551
40
0.100000
0
POLYLINE
8
0
66
1
40
0.008000
41
0.008000
0
VERTEX
8
0
10
0.650000
20
-2.415551
0
VERTEX
8
0
10
0.650000
20
-2.465551
0
SEQEND
8
0
0
POLYLINE
8
0
66
1
40
0.008000
41
0.008000
0
VERTEX
8
0
10
0.675000
20
-2.440551
0
VERTEX
8
0
10
0.625000
20
-2.440551
0
SEQEND
8
0
0
TEXT
8
0
10
0.733000
20
-2.578051
40
0.048000
41
1.041667
50
90.000000
1
D2
0
CIRCLE
8
0
10
1.337402
20
-2.540551
40
0.000000
0
CIRCLE
8
0
10
1.337402
20
-2.540551
40
0.100000
0
POLYLINE
8
0
66
1
40
0.008000
41
0.008000
0
VERTEX
8
0
10
1.437402
20
-2.415551
0
VERTEX
8
0
10
1.437402
20
-2.465551
0
SEQEND
8
0
0
POLYLINE
8
0
66
1
40
0.008000
41
0.008000
0
VERTEX
8
0
10
1.462402
20
-2.440551
0
VERTEX
8
0
10
1.412402
20
-2.440551
0
SEQEND
8
0
0
TEXT
8
0
10
1.520402
20
-2.578051
40
0.048000
41
1.041667
50
90.000000
1
D3
0
CIRCLE
8
0
10
2.124803
20
-2.540551
40
0.000000
0
CIRCLE
8
0
10
2.124803
20
-2.540551
40
0.100000
0
POLYLINE
8
0
66
1
40
0.008000
41
0.008000
0
VERTEX
8
0
10
2.224803
20
-2.415551
0
VERTEX
8
0
10
2.224803
20
-2.465551
0
SEQEND
8
0
0
POLYLINE
8
0
66
1
40
0.008000
41
0.008000
0
VERTEX
8
0
10
2.249803
20
-2.440551
0
VERTEX
8
0
10
2.199803
20
-2.440551
0
SEQEND
8
0
0
TEXT
8
0
10
2.307803
20
-2.578051
40
0.048000
41
1.041667
50
90.000000
1
D4
0
CIRCLE
8
0
10
2.912205
20
-2.540551
40
0.000000
0
CIRCLE
8
0
10
2.912205
20
-2.540551
40
0.100000
0
POLYLINE
8
0
66
1
40
0.008000
41
0.008000
0
VERTEX
8
0
10
3.012205
20
-2.415551
0
VERTEX
8
0
10
3.012205
20
-2.465551
0
SEQEND
8
0
0
POLYLINE
8
0
66
1
40
0.008000
41
0.008000
0
VERTEX
8
0
10
3.037205
20
-2.440551
0
VERTEX
8
0
10
2.987205
20
-2.440551
0
SEQEND
8
0
0
TEXT
8
0
10
3.095205
20
-2.578051
40
0.048000
41
1.041667
50
90.000000
1
D5
0
CIRCLE
8
0
10
3.699606
20
-2.540551
40
0.000000
0
CIRCLE
8
0
10
3.699606
20
-2.540551
40
0.100000
0
POLYLINE
8
0
66
1
40
0.008000
41
0.008000
0
VERTEX
8
0
10
3.799606
20
-2.415551
0
VERTEX
8
0
10
3.799606
20
-2.465551
0
SEQEND
8
0
0
POLYLINE
8
0
66
1
40
0.008000
41
0.008000
0
VERTEX
8
0
10
3.824606
20
-2.440551
0
VERTEX
8
0
10
3.774606
20
-2.440551
0
SEQEND
8
0
0
TEXT
8
0
10
3.882606
20
-2.578051
40
0.048000
41
1.041667
50
90.000000
1
D6
0
POLYLINE
8
0
66
1
40
0.008000
41
0.008000
0
VERTEX
8
0
10
-0.237402
20
-1.851575
0
VERTEX
8
0
10
-0.237402
20
-1.901575
0
SEQEND
8
0
0
POLYLINE
8
0
66
1
40
0.008000
41
0.008000
0
VERTEX
8
0
10
-0.262402
20
-2.101575
0
VERTEX
8
0
10
-0.212402
20
-2.101575
0
VERTEX
8
0
10
-0.212402
20
-1.901575
0
VERTEX
8
0
10
-0.262402
20
-1.901575
0
VERTEX
8
0
10
-0.262402
20
-2.101575
0
SEQEND
8
0
0
POLYLINE
8
0
66
1
40
0.008000
41
0.008000
0
VERTEX
8
0
10
-0.237402
20
-2.101575
0
VERTEX
8
0
10
-0.237402
20
-2.151575
0
SEQEND
8
0
0
TEXT
8
0
10
-0.154402
20
-2.051575
40
0.048000
41
1.041667
50
90.000000
1
R1
0
POLYLINE
8
0
66
1
40
0.008000
41
0.008000
0
VERTEX
8
0
10
0.550000
20
-1.851575
0
VERTEX
8
0
10
0.550000
20
-1.901575
0
SEQEND
8
0
0
POLYLINE
8
0
66
1
40
0.008000
41
0.008000
0
VERTEX
8
0
10
0.525000
20
-2.101575
0
VERTEX
8
0
10
0.575000
20
-2.101575
0
VERTEX
8
0
10
0.575000
20
-1.901575
0
VERTEX
8
0
10
0.525000
20
-1.901575
0
VERTEX
8
0
10
0.525000
20
-2.101575
0
SEQEND
8
0
0
POLYLINE
8
0
66
1
40
0.008000
41
0.008000
0
VERTEX
8
0
10
0.550000
20
-2.101575
0
VERTEX
8
0
10
0.550000
20
-2.151575
0
SEQEND
8
0
0
TEXT
8
0
10
0.633000
20
-2.051575
40
0.048000
41
1.041667
50
90.000000
1
R2
0
POLYLINE
8
0
66
1
40
0.008000
41
0.008000
0
VERTEX
8
0
10
1.337402
20
-1.851575
0
VERTEX
8
0
10
1.337402
20
-1.901575
0
SEQEND
8
0
0
POLYLINE
8
0
66
1
40
0.008000
41
0.008000
0
VERTEX
8
0
10
1.312402
20
-2.101575
0
VERTEX
8
0
10
1.362402
20
-2.101575
0
VERTEX
8
0
10
1.362402
20
-1.901575
0
VERTEX
8
0
10
1.312402
20
-1.901575
0
VERTEX
8
0
10
1.312402
20
-2.101575
0
SEQEND
8
0
0
POLYLINE
8
0
66
1
40
0.008000
41
0.008000
0
VERTEX
8
0
10
1.337402
20
-2.101575
0
VERTEX
8
0
10
1.337402
20
-2.151575
0
SEQEND
8
0
0
TEXT
8
0
10
1.420402
20
-2.051575
40
0.048000
41
1.041667
50
90.000000
1
R3
0
POLYLINE
8
0
66
1
40
0.008000
41
0.008000
0
VERTEX
8
0
10
2.124803
20
-1.851575
0
VERTEX
8
0
10
2.124803
20
-1.901575
0
SEQEND
8
0
0
POLYLINE
8
0
66
1
40
0.008000
41
0.008000
0
VERTEX
8
0
10
2.099803
20
-2.101575
0
VERTEX
8
0
10
2.149803
20
-2.101575
0
VERTEX
8
0
10
2.149803
20
-1.901575
0
VERTEX
8
0
10
2.099803
20
-1.901575
0
VERTEX
8
0
10
2.099803
20
-2.101575
0
SEQEND
8
0
0
POLYLINE
8
0
66
1
40
0.008000
41
0.008000
0
VERTEX
8
0
10
2.124803
20
-2.101575
0
VERTEX
8
0
10
2.124803
20
-2.151575
0
SEQEND
8
0
0
TEXT
8
0
10
2.207803
20
-2.051575
40
0.048000
41
1.041667
50
90.000000
1
R4
0
POLYLINE
8
0
66
1
40
0.008000
41
0.008000
0
VERTEX
8
0
10
2.912205
20
-1.851575
0
VERTEX
8
0
10
2.912205
20
-1.901575
0
SEQEND
8
0
0
POLYLINE
8
0
66
1
40
0.008000
41
0.008000
0
VERTEX
8
0
10
2.887205
20
-2.101575
0
VERTEX
8
0
10
2.937205
20
-2.101575
0
VERTEX
8
0
10
2.937205
20
-1.901575
0
VERTEX
8
0
10
2.887205
20
-1.901575
0
VERTEX
8
0
10
2.887205
20
-2.101575
0
SEQEND
8
0
0
POLYLINE
8
0
66
1
40
0.008000
41
0.008000
0
VERTEX
8
0
10
2.912205
20
-2.101575
0
VERTEX
8
0
10
2.912205
20
-2.151575
0
SEQEND
8
0
0
TEXT
8
0
10
2.995205
20
-2.051575
40
0.048000
41
1.041667
50
90.000000
1
R5
0
POLYLINE
8
0
66
1
40
0.008000
41
0.008000
0
VERTEX
8
0
10
3.699606
20
-1.851575
0
VERTEX
8
0
10
3.699606
20
-1.901575
0
SEQEND
8
0
0
POLYLINE
8
0
66
1
40
0.008000
41
0.008000
0
VERTEX
8
0
10
3.674606
20
-2.101575
0
VERTEX
8
0
10
3.724606
20
-2.101575
0
VERTEX
8
0
10
3.724606
20
-1.901575
0
VERTEX
8
0
10
3.674606
20
-1.901575
0
VERTEX
8
0
10
3.674606
20
-2.101575
0
SEQEND
8
0
0
POLYLINE
8
0
66
1
40
0.008000
41
0.008000
0
VERTEX
8
0
10
3.699606
20
-2.101575
0
VERTEX
8
0
10
3.699606
20
-2.151575
0
SEQEND
8
0
0
TEXT
8
0
10
3.782606
20
-2.051575
40
0.048000
41
1.041667
50
90.000000
1
R6
0
POLYLINE
8
0
66
1
40
0.008000
41
0.008000
0
VERTEX
8
0
10
0.984252
20
2.552559
0
VERTEX
8
0
10
1.784252
20
2.552559
0
VERTEX
8
0
10
1.784252
20
2.702559
0
VERTEX
8
0
10
0.984252
20
2.702559
0
VERTEX
8
0
10
0.984252
20
2.552559
0
SEQEND
8
0
0
TEXT
8
0
10
1.484252
20
2.712559
40
0.048000
41
1.041667
71
2
1
LCD1
0
POLYLINE
8
0
66
1
40
0.008000
41
0.008000
0
VERTEX
8
0
10
0.185827
20
2.552559
0
VERTEX
8
0
10
0.985827
20
2.552559
0
VERTEX
8
0
10
0.985827
20
2.702559
0
VERTEX
8
0
10
0.185827
20
2.702559
0
VERTEX
8
0
10
0.185827
20
2.552559
0
SEQEND
8
0
0
TEXT
8
0
10
0.685827
20
2.712559
40
0.048000
41
1.041667
71
2
1
LCD2
0
POLYLINE
8
0
66
1
40
0.008000
41
0.008000
0
VERTEX
8
0
10
4.238583
20
1.568307
0
VERTEX
8
0
10
4.538583
20
1.568307
0
VERTEX
8
0
10
4.538583
20
1.718307
0
VERTEX
8
0
10
4.238583
20
1.718307
0
VERTEX
8
0
10
4.238583
20
1.568307
0
SEQEND
8
0
0
CIRCLE
8
0
10
4.388583
20
1.868307
40
0.150000
0
POLYLINE
8
0
66
1
40
0.008000
41
0.008000
0
VERTEX
8
0
10
4.388583
20
1.768307
0
VERTEX
8
0
10
4.388583
20
1.968307
0
SEQEND
8
0
0
POLYLINE
8
0
66
1
40
0.008000
41
0.008000
0
VERTEX
8
0
10
4.338583
20
1.868307
0
VERTEX
8
0
10
4.438583
20
1.868307
0
SEQEND
8
0
0
TEXT
8
0
10
4.313583
20
2.028307
40
0.048000
41
1.041667
1
BRT
0
POLYLINE
8
0
66
1
40
0.008000
41
0.008000
0
VERTEX
8
0
10
4.535433
20
2.529134
0
VERTEX
8
0
10
4.485433
20
2.529134
0
SEQEND
8
0
0
POLYLINE
8
0
66
1
40
0.008000
41
0.008000
0
VERTEX
8
0
10
4.285433
20
2.504134
0
VERTEX
8
0
10
4.485433
20
2.504134
0
VERTEX
8
0
10
4.485433
20
2.554134
0
VERTEX
8
0
10
4.285433
20
2.554134
0
VERTEX
8
0
10
4.285433
20
2.504134
0
SEQEND
8
0
0
POLYLINE
8
0
66
1
40
0.008000
41
0.008000
0
VERTEX
8
0
10
4.285433
20
2.529134
0
VERTEX
8
0
10
4.235433
20
2.529134
0
SEQEND
8
0
0
TEXT
8
0
10
4.285433
20
2.446134
40
0.048000
41
1.041667
1
RLED
0
POLYLINE
8
0
66
1
40
0.008000
41
0.008000
0
VERTEX
8
0
10
-4.774409
20
0.121850
0
VERTEX
8
0
10
-3.974409
20
0.121850
0
VERTEX
8
0
10
-3.974409
20
0.271850
0
VERTEX
8
0
10
-4.774409
20
0.271850
0
VERTEX
8
0
10
-4.774409
20
0.121850
0
SEQEND
8
0
0
TEXT
8
0
10
-4.249409
20
0.281850
40
0.048000
41
1.041667
71
2
1
A_PWR
0
POLYLINE
8
0
66
1
40
0.008000
41
0.008000
0
VERTEX
8
0
10
-3.874409
20
0.121850
0
VERTEX
8
0
10
-3.274409
20
0.121850
0
VERTEX
8
0
10
-3.274409
20
0.271850
0
VERTEX
8
0
10
-3.874409
20
0.271850
0
VERTEX
8
0
10
-3.874409
20
0.121850
0
SEQEND
8
0
0
TEXT
8
0
10
-3.599409
20
0.281850
40
0.048000
41
1.041667
1
A
0
POLYLINE
8
0
66
1
40
0.008000
41
0.008000
0
VERTEX
8
0
10
-4.074409
20
-1.778150
0
VERTEX
8
0
10
-3.274409
20
-1.778150
0
VERTEX
8
0
10
-3.274409
20
-1.628150
0
VERTEX
8
0
10
-4.074409
20
-1.628150
0
VERTEX
8
0
10
-4.074409
20
-1.778150
0
SEQEND
8
0
0
TEXT
8
0
10
-3.574409
20
-1.618150
40
0.048000
41
1.041667
71
2
1
D0_7
0
POLYLINE
8
0
66
1
40
0.008000
41
0.008000
0
VERTEX
8
0
10
-5.124409
20
-1.778150
0
VERTEX
8
0
10
-4.124409
20
-1.778150
0
VERTEX
8
0
10
-4.124409
20
-1.628150
0
VERTEX
8
0
10
-5.124409
20
-1.628150
0
VERTEX
8
0
10
-5.124409
20
-1.778150
0
SEQEND
8
0
0
TEXT
8
0
10
-4.499409
20
-1.618150
40
0.048000
41
1.041667
71
2
1
D8_13
0
CIRCLE
8
0
10
-0.237402
20
-2.540551
40
0.000000
0
CIRCLE
8
0
10
-0.237402
20
-2.540551
40
0.100000
0
POLYLINE
8
0
66
1
40
0.008000
41
0.008000
0
VERTEX
8
0
10
-0.137402
20
-2.415551
0
VERTEX
8
0
10
-0.137402
20
-2.465551
0
SEQEND
8
0
0
POLYLINE
8
0
66
1
40
0.008000
41
0.008000
0
VERTEX
8
0
10
-0.112402
20
-2.440551
0
VERTEX
8
0
10
-0.162402
20
-2.440551
0
SEQEND
8
0
0
TEXT
8
0
10
-0.054402
20
-2.578051
40
0.048000
41
1.041667
50
90.000000
1
D1
0
CIRCLE
8
0
10
0.550000
20
-2.540551
40
0.000000
0
CIRCLE
8
0
10
0.550000
20
-2.540551
40
0.100000
0
POLYLINE
8
0
66
1
40
0.008000
41
0.008000
0
VERTEX
8
0
10
0.650000
20
-2.415551
0
VERTEX
8
0
10
0.650000
20
-2.465551
0
SEQEND
8
0
0
POLYLINE
8
0
66
1
40
0.008000
41
0.008000
0
VERTEX
8
0
10
0.675000
20
-2.440551
0
VERTEX
8
0
10
0.625000
20
-2.440551
0
SEQEND
8
0
0
TEXT
8
0
10
0.733000
20
-2.578051
40
0.048000
41
1.041667
50
90.000000
1
D2
0
CIRCLE
8
0
10
1.337402
20
-2.540551
40
0.000000
0
CIRCLE
8
0
10
1.337402
20
-2.540551
40
0.100000
0
POLYLINE
8
0
66
1
40
0.008000
41
0.008000
0
VERTEX
8
0
10
1.437402
20
-2.415551
0
VERTEX
8
0
10
1.437402
20
-2.465551
0
SEQEND
8
0
0
POLYLINE
8
0
66
1
40
0.008000
41
0.008000
0
VERTEX
8
0
10
1.462402
20
-2.440551
0
VERTEX
8
0
10
1.412402
20
-2.440551
0
SEQEND
8
0
0
TEXT
8
0
10
1.520402
20
-2.578051
40
0.048000
41
1.041667
50
90.000000
1
D3
0
CIRCLE
8
0
10
2.124803
20
-2.540551
40
0.000000
0
CIRCLE
8
0
10
2.124803
20
-2.540551
40
0.100000
0
POLYLINE
8
0
66
1
40
0.008000
41
0.008000
0
VERTEX
8
0
10
2.224803
20
-2.415551
0
VERTEX
8
0
10
2.224803
20
-2.465551
0
SEQEND
8
0
0
POLYLINE
8
0
66
1
40
0.008000
41
0.008000
0
VERTEX
8
0
10
2.249803
20
-2.440551
0
VERTEX
8
0
10
2.199803
20
-2.440551
0
SEQEND
8
0
0
TEXT
8
0
10
2.307803
20
-2.578051
40
0.048000
41
1.041667
50
90.000000
1
D4
0
CIRCLE
8
0
10
2.912205
20
-2.540551
40
0.000000
0
CIRCLE
8
0
10
2.912205
20
-2.540551
40
0.100000
0
POLYLINE
8
0
66
1
40
0.008000
41
0.008000
0
VERTEX
8
0
10
3.012205
20
-2.415551
0
VERTEX
8
0
10
3.012205
20
-2.465551
0
SEQEND
8
0
0
POLYLINE
8
0
66
1
40
0.008000
41
0.008000
0
VERTEX
8
0
10
3.037205
20
-2.440551
0
VERTEX
8
0
10
2.987205
20
-2.440551
0
SEQEND
8
0
0
TEXT
8
0
10
3.095205
20
-2.578051
40
0.048000
41
1.041667
50
90.000000
1
D5
0
CIRCLE
8
0
10
3.699606
20
-2.540551
40
0.000000
0
CIRCLE
8
0
10
3.699606
20
-2.540551
40
0.100000
0
POLYLINE
8
0
66
1
40
0.008000
41
0.008000
0
VERTEX
8
0
10
3.799606
20
-2.415551
0
VERTEX
8
0
10
3.799606
20
-2.465551
0
SEQEND
8
0
0
POLYLINE
8
0
66
1
40
0.008000
41
0.008000
0
VERTEX
8
0
10
3.824606
20
-2.440551
0
VERTEX
8
0
10
3.774606
20
-2.440551
0
SEQEND
8
0
0
TEXT
8
0
10
3.882606
20
-2.578051
40
0.048000
41
1.041667
50
90.000000
1
D6
0
POLYLINE
8
0
66
1
40
0.008000
41
0.008000
0
VERTEX
8
0
10
-0.237402
20
-1.851575
0
VERTEX
8
0
10
-0.237402
20
-1.901575
0
SEQEND
8
0
0
POLYLINE
8
0
66
1
40
0.008000
41
0.008000
0
VERTEX
8
0
10
-0.262402
20
-2.101575
0
VERTEX
8
0
10
-0.212402
20
-2.101575
0
VERTEX
8
0
10
-0.212402
20
-1.901575
0
VERTEX
8
0
10
-0.262402
20
-1.901575
0
VERTEX
8
0
10
-0.262402
20
-2.101575
0
SEQEND
8
0
0
POLYLINE
8
0
66
1
40
0.008000
41
0.008000
0
VERTEX
8
0
10
-0.237402
20
-2.101575
0
VERTEX
8
0
10
-0.237402
20
-2.151575
0
SEQEND
8
0
0
TEXT
8
0
10
-0.154402
20
-2.051575
40
0.048000
41
1.041667
50
90.000000
1
R1
0
POLYLINE
8
0
66
1
40
0.008000
41
0.008000
0
VERTEX
8
0
10
0.550000
20
-1.851575
0
VERTEX
8
0
10
0.550000
20
-1.901575
0
SEQEND
8
0
0
POLYLINE
8
0
66
1
40
0.008000
41
0.008000
0
VERTEX
8
0
10
0.525000
20
-2.101575
0
VERTEX
8
0
10
0.575000
20
-2.101575
0
VERTEX
8
0
10
0.575000
20
-1.901575
0
VERTEX
8
0
10
0.525000
20
-1.901575
0
VERTEX
8
0
10
0.525000
20
-2.101575
0
SEQEND
8
0
0
POLYLINE
8
0
66
1
40
0.008000
41
0.008000
0
VERTEX
8
0
10
0.550000
20
-2.101575
0
VERTEX
8
0
10
0.550000
20
-2.151575
0
SEQEND
8
0
0
TEXT
8
0
10
0.633000
20
-2.051575
40
0.048000
41
1.041667
50
90.000000
1
R2
0
POLYLINE
8
0
66
1
40
0.008000
41
0.008000
0
VERTEX
8
0
10
1.337402
20
-1.851575
0
VERTEX
8
0
10
1.337402
20
-1.901575
0
SEQEND
8
0
0
POLYLINE
8
0
66
1
40
0.008000
41
0.008000
0
VERTEX
8
0
10
1.312402
20
-2.101575
0
VERTEX
8
0
10
1.362402
20
-2.101575
0
VERTEX
8
0
10
1.362402
20
-1.901575
0
VERTEX
8
0
10
1.312402
20
-1.901575
0
VERTEX
8
0
10
1.312402
20
-2.101575
0
SEQEND
8
0
0
POLYLINE
8
0
66
1
40
0.008000
41
0.008000
0
VERTEX
8
0
10
1.337402
20
-2.101575
0
VERTEX
8
0
10
1.337402
20
-2.151575
0
SEQEND
8
0
0
TEXT
8
0
10
1.420402
20
-2.051575
40
0.048000
41
1.041667
50
90.000000
1
R3
0
POLYLINE
8
0
66
1
40
0.008000
41
0.008000
0
VERTEX
8
0
10
2.124803
20
-1.851575
0
VERTEX
8
0
10
2.124803
20
-1.901575
0
SEQEND
8
0
0
POLYLINE
8
0
66
1
40
0.008000
41
0.008000
0
VERTEX
8
0
10
2.099803
20
-2.101575
0
VERTEX
8
0
10
2.149803
20
-2.101575
0
VERTEX
8
0
10
2.149803
20
-1.901575
0
VERTEX
8
0
10
2.099803
20
-1.901575
0
VERTEX
8
0
10
2.099803
20
-2.101575
0
SEQEND
8
0
0
POLYLINE
8
0
66
1
40
0.008000
41
0.008000
0
VERTEX
8
0
10
2.124803
20
-2.101575
0
VERTEX
8
0
10
2.124803
20
-2.151575
0
SEQEND
8
0
0
TEXT
8
0
10
2.207803
20
-2.051575
40
0.048000
41
1.041667
50
90.000000
1
R4
0
POLYLINE
8
0
66
1
40
0.008000
41
0.008000
0
VERTEX
8
0
10
2.912205
20
-1.851575
0
VERTEX
8
0
10
2.912205
20
-1.901575
0
SEQEND
8
0
0
POLYLINE
8
0
66
1
40
0.008000
41
0.008000
0
VERTEX
8
0
10
2.887205
20
-2.101575
0
VERTEX
8
0
10
2.937205
20
-2.101575
0
VERTEX
8
0
10
2.937205
20
-1.901575
0
VERTEX
8
0
10
2.887205
20
-1.901575
0
VERTEX
8
0
10
2.887205
20
-2.101575
0
SEQEND
8
0
0
POLYLINE
8
0
66
1
40
0.008000
41
0.008000
0
VERTEX
8
0
10
2.912205
20
-2.101575
0
VERTEX
8
0
10
2.912205
20
-2.151575
0
SEQEND
8
0
0
TEXT
8
0
10
2.995205
20
-2.051575
40
0.048000
41
1.041667
50
90.000000
1
R5
0
POLYLINE
8
0
66
1
40
0.008000
41
0.008000
0
VERTEX
8
0
10
3.699606
20
-1.851575
0
VERTEX
8
0
10
3.699606
20
-1.901575
0
SEQEND
8
0
0
POLYLINE
8
0
66
1
40
0.008000
41
0.008000
0
VERTEX
8
0
10
3.674606
20
-2.101575
0
VERTEX
8
0
10
3.724606
20
-2.101575
0
VERTEX
8
0
10
3.724606
20
-1.901575
0
VERTEX
8
0
10
3.674606
20
-1.901575
0
VERTEX
8
0
10
3.674606
20
-2.101575
0
SEQEND
8
0
0
POLYLINE
8
0
66
1
40
0.008000
41
0.008000
0
VERTEX
8
0
10
3.699606
20
-2.101575
0
VERTEX
8
0
10
3.699606
20
-2.151575
0
SEQEND
8
0
0
TEXT
8
0
10
3.782606
20
-2.051575
40
0.048000
41
1.041667
50
90.000000
1
R6
0
POLYLINE
8
0
66
1
40
0.008000
41
0.008000
0
VERTEX
8
0
10
0.984252
20
2.552559
0
VERTEX
8
0
10
1.784252
20
2.552559
0
VERTEX
8
0
10
1.784252
20
2.702559
0
VERTEX
8
0
10
0.984252
20
2.702559
0
VERTEX
8
0
10
0.984252
20
2.552559
0
SEQEND
8
0
0
TEXT
8
0
10
1.484252
20
2.712559
40
0.048000
41
1.041667
71
2
1
LCD1
0
POLYLINE
8
0
66
1
40
0.008000
41
0.008000
0
VERTEX
8
0
10
0.185827
20
2.552559
0
VERTEX
8
0
10
0.985827
20
2.552559
0
VERTEX
8
0
10
0.985827
20
2.702559
0
VERTEX
8
0
10
0.185827
20
2.702559
0
VERTEX
8
0
10
0.185827
20
2.552559
0
SEQEND
8
0
0
TEXT
8
0
10
0.685827
20
2.712559
40
0.048000
41
1.041667
71
2
1
LCD2
0
POLYLINE
8
0
66
1
40
0.008000
41
0.008000
0
VERTEX
8
0
10
4.238583
20
1.568307
0
VERTEX
8
0
10
4.538583
20
1.568307
0
VERTEX
8
0
10
4.538583
20
1.718307
0
VERTEX
8
0
10
4.238583
20
1.718307
0
VERTEX
8
0
10
4.238583
20
1.568307
0
SEQEND
8
0
0
CIRCLE
8
0
10
4.388583
20
1.868307
40
0.150000
0
POLYLINE
8
0
66
1
40
0.008000
41
0.008000
0
VERTEX
8
0
10
4.388583
20
1.768307
0
VERTEX
8
0
10
4.388583
20
1.968307
0
SEQEND
8
0
0
POLYLINE
8
0
66
1
40
0.008000
41
0.008000
0
VERTEX
8
0
10
4.338583
20
1.868307
0
VERTEX
8
0
10
4.438583
20
1.868307
0
SEQEND
8
0
0
TEXT
8
0
10
4.313583
20
2.028307
40
0.048000
41
1.041667
1
BRT
0
POLYLINE
8
0
66
1
40
0.008000
41
0.008000
0
VERTEX
8
0
10
4.535433
20
2.529134
0
VERTEX
8
0
10
4.485433
20
2.529134
0
SEQEND
8
0
0
POLYLINE
8
0
66
1
40
0.008000
41
0.008000
0
VERTEX
8
0
10
4.285433
20
2.504134
0
VERTEX
8
0
10
4.485433
20
2.504134
0
VERTEX
8
0
10
4.485433
20
2.554134
0
VERTEX
8
0
10
4.285433
20
2.554134
0
VERTEX
8
0
10
4.285433
20
2.504134
0
SEQEND
8
0
0
POLYLINE
8
0
66
1
40
0.008000
41
0.008000
0
VERTEX
8
0
10
4.285433
20
2.529134
0
VERTEX
8
0
10
4.235433
20
2.529134
0
SEQEND
8
0
0
TEXT
8
0
10
4.285433
20
2.446134
40
0.048000
41
1.041667
1
RLED
0
ENDSEC
0
EOF

